<svg width="1024" height="1024" viewBox="0 0 1024 1024" fill="none" xmlns="http://www.w3.org/2000/svg">
<g clip-path="url(#clip0_1_2)">
<rect width="1024" height="1024" fill="#FF5033"/>
<path d="M512 64C577.647 64 642.491 78.4267 701.945 106.26C761.399 134.094 814.01 174.653 856.056 225.068C898.101 275.484 928.553 334.524 945.255 398.01C961.959 461.496 964.506 527.877 952.717 592.456C940.926 657.037 915.088 718.236 877.03 771.725C838.972 825.214 789.623 869.685 732.477 901.992C675.331 934.299 611.782 953.653 546.328 958.683C480.874 963.713 415.114 954.297 353.703 931.102L365.575 899.669C422.381 921.125 483.208 929.835 543.753 925.181C604.298 920.529 663.08 902.627 715.941 872.743C768.801 842.858 814.449 801.723 849.653 752.246C884.857 702.768 908.757 646.158 919.662 586.423C930.567 526.687 928.212 465.284 912.762 406.559C897.31 347.835 869.143 293.223 830.251 246.588C791.36 199.955 742.695 162.437 687.7 136.691C632.705 110.945 572.723 97.6 512 97.6V64Z" fill="white" fill-opacity="0.7"/>
<path d="M319.341 916.459C241.214 879.243 175.537 820.197 130.249 746.456L158.88 728.872C200.772 797.082 261.523 851.7 333.79 886.124L319.341 916.459Z" fill="white" fill-opacity="0.45"/>
<path d="M112.499 714.74C85.2744 661.092 69.133 602.509 65.0382 542.487L98.561 540.202C102.348 595.721 117.278 649.91 142.463 699.535L112.499 714.74Z" fill="white" fill-opacity="0.3"/>
<path d="M219.79 211.577C218.393 212.08 216.689 213.645 216.102 214.93C215.738 215.769 209.144 249.86 209.144 250.95C209.144 251.034 207.97 250.587 206.573 249.972C184.022 240.192 161.946 234.659 145.263 234.659C130.453 234.659 118.968 238.627 110.92 246.507C108.517 248.91 105.695 252.515 105.052 254.052C103.711 257.21 103.208 274.535 104.186 283.421C105.499 295.353 108.154 307.23 112.317 319.749C127.659 365.8 162.114 419.118 217.778 482.942C222.641 488.503 223.898 489.733 225.435 490.236C228.593 491.297 232.002 489.816 233.623 486.715C234.349 485.317 234.321 482.439 233.539 480.986C233.204 480.371 230.912 477.549 228.397 474.699C174.437 413.194 139.675 359.625 125.032 315.417C121.204 303.876 118.884 293.677 117.599 282.723C117.04 278.084 116.872 263.944 117.347 263.469C117.683 263.134 126.569 263.525 132.856 264.168C152.641 266.152 172.09 271.154 184.832 277.553C187.459 278.866 187.906 279.202 187.599 279.481C187.375 279.677 180.361 285.573 171.978 292.559C155.044 306.699 155.491 306.224 155.491 309.577C155.491 312.567 157.447 315.222 160.214 315.976C161.695 316.367 275.315 324.136 276.685 323.94C280.038 323.437 282.525 319.804 281.966 316.2C281.77 315.026 228.788 215.601 227.335 213.701C226.273 212.303 223.926 211.186 222.166 211.214C221.383 211.214 220.321 211.381 219.79 211.577Z" fill="#202020"/>
<path d="M800.218 211.549C797.731 212.331 798.597 210.822 770.373 263.581C755.814 290.771 743.603 313.657 743.268 314.439C741.842 317.485 742.792 321.062 745.475 322.878C746.202 323.353 747.347 323.856 747.99 323.94C749.359 324.136 862.952 316.367 864.433 315.976C869.1 314.719 870.749 308.375 867.311 304.938C866.864 304.463 859.794 298.511 851.607 291.665C837.998 280.291 836.768 279.202 837.244 278.866C838.864 277.609 848.337 273.641 854.234 271.741C869.184 266.934 888.13 263.776 904.114 263.385L907.607 263.301L907.83 264.699C908.222 266.878 908.194 279.956 907.802 283.421C904.477 312.735 890.365 345.737 865.132 383.321C788.174 497.92 625.064 629.09 467.766 702.862C392.876 737.988 323.938 758.331 264.333 762.914C256.174 763.557 244.018 763.976 237.507 763.864C231.778 763.78 231.611 763.753 230.074 763.026C228.034 762.02 226.553 760.539 225.659 758.639C224.988 757.214 224.932 756.767 224.96 753.721C224.988 746.176 228.677 735.697 234.21 727.313C237.311 722.619 240.469 718.846 245.443 713.872C250.473 708.87 253.128 706.551 258.745 702.303C260.756 700.794 262.573 699.341 262.796 699.09C263.02 698.838 263.719 698.252 264.333 697.776C265.144 697.134 265.619 696.463 266.122 695.178C267.212 692.327 266.709 690.343 262.964 683.022C260.729 678.579 259.275 676.818 257.04 675.757C250.277 672.543 241.699 677.433 224.541 694.2C220.07 698.587 211.547 707.557 205.902 713.816C204.086 715.828 202.549 717.477 202.521 717.421C202.353 717.281 203.946 713.677 205.679 710.184C213.754 694.032 229.766 675.505 242.313 667.82C245.052 666.116 246.449 664.942 247.036 663.852C247.707 662.539 247.986 660.751 247.679 659.493C247.287 657.705 237.954 635.377 237.2 634.343C235.551 632.164 232.17 631.214 229.627 632.164C227.615 632.918 223.647 635.21 221.383 636.942C211.743 644.236 202.689 656.447 192.126 676.343C189.471 681.373 183.687 693.25 181.786 697.525C181.451 698.279 181.144 698.838 181.088 698.782C180.92 698.587 181.423 693.333 181.898 690.623C185.251 670.978 199.447 644.99 214.984 630.012C218.589 626.519 221.271 624.563 223.703 623.669C225.435 622.998 227.056 621.517 227.727 619.952C228.593 617.828 228.397 616.878 222.697 596.116C219.679 585.19 217.052 575.633 216.828 574.85C216.325 573.062 214.593 571.05 213 570.407C211.24 569.681 208.976 569.765 207.355 570.575C205.287 571.581 196.345 581.501 189.331 590.499C173.291 611.122 161.275 635.21 155.659 658.04C148.449 687.325 150.321 714.068 161.108 735.92C164.852 743.465 169.463 749.948 175.192 755.677C187.124 767.665 202.325 774.623 221.299 776.83C226.05 777.389 251.228 777.277 260.281 776.663C303.176 773.757 346.182 764.283 396.984 746.539L404.166 744.024L410.397 746.26C455.527 762.383 503.451 766.743 550.341 759.03C588.681 752.687 624.673 738.547 656.725 717.17C698.501 689.337 731.447 650.299 752.629 603.437C763.164 580.188 771.044 553.892 775.431 527.513C777.136 517.285 778.477 506.639 778.226 505.465C778.086 504.822 778.812 504.04 785.407 497.585C796.501 486.798 811.004 471.709 821.735 459.804C879.16 396.148 913.363 337.577 920.293 291.106C921.299 284.176 921.551 280.962 921.551 273.78C921.579 266.571 921.299 263.022 920.293 257.182C919.735 253.884 919.427 253.214 917.108 250.307C909.87 241.226 899.838 236.252 886.034 234.91C878.936 234.212 868.01 234.994 858.537 236.894C846.549 239.325 831.878 243.992 819.387 249.413C815.727 251.006 815.559 251.062 815.419 250.475C815.363 250.168 813.882 242.343 812.178 233.122C810.473 223.9 808.964 215.964 808.824 215.517C807.79 212.359 803.655 210.431 800.218 211.549Z" fill="#202020"/>
<path d="M488.026 220.575C487.635 220.659 483.862 221.273 479.643 221.972C439.99 228.399 414.309 235.749 390.641 247.373C375.774 254.695 362.166 263.525 347.747 275.206C342.297 279.621 341.599 280.291 341.599 281.102C341.599 281.912 342.381 282.723 343.136 282.723C343.415 282.723 345.315 282.22 347.299 281.633C362.808 276.994 376.501 274.283 390.78 273.054C397.543 272.495 412.605 272.635 418.166 273.333C442.337 276.379 461.088 284.874 476.234 299.601C494.174 317.066 504.932 341.349 507.307 369.908C507.699 374.519 507.699 386.144 507.307 390.866C507.14 392.934 506.693 396.763 506.329 399.361C505.631 404.224 505.687 404.922 506.665 405.23C508.062 405.649 513.092 406.264 516.78 406.487C546.122 408.08 572.445 393.968 601.758 360.966C606.062 356.132 611.735 349.285 620.202 338.751C627.97 329.11 633.475 322.515 636.884 318.826L638.784 316.759L642.194 319.022C664.409 333.749 680.421 359.709 687.826 392.962C692.8 415.234 693.331 440.942 689.335 463.8C683.216 498.675 667.539 526.591 645.491 541.82C634.872 549.17 621.627 553.753 608.8 554.535L605.866 554.703L609.331 550.818C622.633 535.98 631.323 521.449 633.615 510.216C634.23 507.226 634.397 501.301 633.894 500.016C633.755 499.625 633.391 499.206 633.112 499.038C632.693 498.814 626.964 499.597 610.533 502.056C598.405 503.872 588.289 505.465 588.066 505.549C587.842 505.661 583.427 511.333 578.285 518.152L568.924 530.559L568.784 516.866C568.645 503.705 568.617 503.146 568.114 502.755C567.806 502.531 567.415 502.363 567.275 502.363C567.108 502.363 560.569 501.553 552.745 500.547C542.796 499.289 538.381 498.814 538.046 499.01C537.766 499.178 532.653 505.046 526.673 512.06C517.675 522.679 515.83 524.719 515.747 524.16C515.719 523.769 516.25 517.761 516.948 510.802C517.647 503.816 518.206 497.697 518.206 497.166C518.206 496.495 518.038 496.104 517.591 495.824C516.333 495.014 478.218 482.188 477.547 482.355C477.1 482.467 476.429 483.361 475.283 485.373C470.309 494.204 464.637 500.91 460.501 502.922C455.751 505.214 451.643 503.397 447.647 497.194C444.964 493.086 443.315 489.369 440.521 481.266C432.613 458.212 421.743 442.256 406.988 431.888C398.8 426.16 388.07 422.136 377.228 420.739C373.204 420.208 363.004 420.291 358.505 420.878C334.11 424.036 309.156 436.695 287.387 456.898C283.363 460.643 277.16 467.238 276.964 467.992C276.657 469.138 277.383 469.725 280.82 471.066C284.9 472.659 288.673 474.699 294.373 478.471C312.76 490.571 328.381 508.064 338.553 527.932C344.477 539.529 347.719 549.365 349.311 560.767C349.898 564.986 349.982 574.571 349.451 578.092C347.244 593.294 340.621 605.03 329.108 614.224C322.485 619.477 309.435 626.212 304.517 626.854C301.471 627.246 297.727 625.848 294.457 623.11C285.962 615.984 277.327 598.156 269.894 572.503C267.519 564.371 264.529 552.216 262.908 544.28C262.21 540.814 261.455 537.713 261.232 537.349C260.729 536.595 259.443 536.511 258.8 537.238C257.599 538.551 254.693 546.18 253.631 550.846C251.507 560.068 251.535 571.022 253.743 582.004C258.884 607.713 275.735 637.892 302.058 668.631C322.01 691.936 346.685 714.292 364.234 724.938C367.391 726.866 372.812 729.549 373.567 729.549C373.846 729.549 379.687 727.369 386.505 724.743C399.974 719.517 400.058 719.461 399.164 717.896C398.856 717.393 397.794 716.834 395.112 715.745C380.553 709.876 367.559 702.192 358.281 693.948C352.665 688.918 348.194 682.938 346.07 677.545L345.511 676.12L346.265 676.288C350.625 677.154 364.764 677.182 370.94 676.315C391.479 673.493 408.637 664.775 426.381 648.148C436.972 638.256 449.519 622.551 459.747 606.399C461.256 604.052 462.541 602.124 462.653 602.124C462.96 602.124 464.553 606.818 465.391 610.228C466.9 616.18 467.208 619.142 467.18 627.274C467.18 633.309 467.068 635.517 466.565 639.29C464.385 655.329 458.796 673.298 450.972 689.282C447.898 695.569 447.647 696.435 448.848 697.022C449.715 697.441 452.481 696.91 456.589 695.541C481.822 687.158 543.747 651.753 605.112 610.647C677.319 562.276 733.04 517.09 761.739 483.641C766.852 477.689 772.497 470.172 775.124 465.868L776.186 464.136L775.571 459.022C767.914 393.968 733.04 331.262 679.862 286.942C647.028 259.557 608.269 240.052 565.711 229.489C548.05 225.102 530.25 222.391 510.102 220.966C505.631 220.659 489.116 220.351 488.026 220.575ZM484.086 253.828C490.066 254.527 492.776 255.645 492.776 257.377C492.776 260.367 486.629 266.85 479.363 271.517C475.563 273.948 475.675 273.864 475.675 274.759C475.675 275.765 476.457 276.379 477.547 276.212C478.022 276.128 479.447 275.681 480.76 275.178C489.563 271.908 506.19 268.471 521.14 266.906C527.651 266.208 539.527 266.208 542.936 266.878C545.982 267.493 548.162 268.443 548.804 269.421C551.347 273.305 538.633 283.421 516.389 295.242C513.79 296.611 511.415 297.952 511.164 298.204C510.158 299.098 510.884 300.886 512.226 300.886C512.589 300.886 515.439 300.383 518.541 299.768C534.944 296.555 552.381 293.928 565.571 292.727C567.723 292.531 572.892 292.363 577.028 292.363C585.216 292.363 587.926 292.699 590.581 294.012C592.369 294.906 592.621 295.745 591.587 297.673C589.072 302.479 578.09 310.415 560.261 320.252C557.188 321.956 554.449 323.521 554.17 323.772C553.443 324.387 553.639 325.784 554.561 326.287C555.232 326.651 555.567 326.567 560.485 324.415C574.653 318.212 585.216 314.663 594.353 313.014C596.086 312.707 598.629 312.511 601.06 312.511C605.615 312.483 608.102 313.07 609.974 314.607C614.641 318.491 612.545 327.796 604.246 340.26C591.084 360.044 566.8 380.611 545.982 389.637C536.816 393.633 527.036 395.784 520.804 395.198L518.709 395.002L518.876 393.717C519.966 385.361 519.854 373.737 518.597 363.761C516.501 346.994 510.717 329.277 502.613 314.998C500.545 311.337 495.236 303.485 492.693 300.299C475.479 278.922 452.341 266.068 424.23 262.323C421.938 262.016 419.563 261.764 418.976 261.764C418.389 261.764 417.83 261.625 417.747 261.485C417.663 261.317 417.663 261.206 417.802 261.206C417.914 261.206 420.429 260.647 423.335 259.948C436.469 256.874 451.028 254.806 466.788 253.8C478.301 253.074 477.854 253.074 484.086 253.828Z" fill="#202020"/>
<path d="M813.156 572.755C811.786 573.397 810.389 574.822 809.83 576.136C809.355 577.282 798.261 617.577 798.01 619.002C797.926 619.505 798.066 620.651 798.317 621.517C798.96 623.669 800.525 625.234 802.872 626.1C807.79 627.888 816.677 636.914 824.445 648.008C829.363 654.994 834.896 664.97 838.305 672.962C840.122 677.154 842.72 685.118 843.615 689.17C844.481 693.11 845.208 698.363 845.096 699.928L845.012 701.018L843.922 698.587C841.575 693.333 833.303 676.902 830.621 672.152C823.243 659.13 817.822 651.585 810.669 644.431C806.198 639.988 802.174 636.97 798.066 635.042C794.657 633.449 791.471 633.896 789.347 636.299C788.369 637.417 778.728 660.415 778.477 662.26C778.058 665.278 779.399 667.262 783.563 669.86C788.034 672.627 792.421 676.232 797.814 681.625C807.176 690.958 815.056 701.549 820.421 712.084C821.958 715.13 823.998 719.769 823.774 719.769C823.746 719.769 821.343 717.17 818.437 713.956C811.283 706.076 795.551 690.371 790.94 686.543C781.495 678.719 775.962 676.176 771.1 677.405C767.467 678.327 766.182 679.669 763.164 685.621C760.509 690.874 759.643 693.194 759.643 694.982C759.643 696.771 760.732 699.23 761.906 700.068C762.437 700.459 762.996 700.934 763.136 701.13C763.303 701.325 764.728 702.471 766.349 703.701C783.73 716.695 794.321 729.717 798.904 743.605C801.335 751.038 802.034 757.325 800.748 760.623C799.966 762.663 797.758 764.731 795.467 765.597C793.958 766.184 793.595 766.212 787.866 766.044C755.73 765.122 701.016 756.85 657.172 746.315C651.862 745.058 651.136 744.946 649.962 745.198C648.118 745.617 647.223 746.12 646.134 747.433C643.227 750.814 644.485 756.18 648.565 757.884C649.627 758.331 659.966 760.818 668.489 762.691C705.711 770.822 745.643 776.802 777.667 779.066C784.401 779.541 801.978 779.541 805.471 779.066C818.549 777.333 827.882 774.288 837.271 768.727C856.972 757.046 870.05 735.976 873.766 709.988C875.164 700.124 875.192 687.773 873.794 676.93C869.938 647.142 856.078 616.515 834.142 589.27C827.882 581.501 820.589 573.677 818.772 572.81C817.235 572.056 814.693 572.028 813.156 572.755Z" fill="#202020"/>
<mask id="mask0_1_2" style="mask-type:alpha" maskUnits="userSpaceOnUse" x="-179" y="-16" width="1400" height="1057">
<path d="M800.218 211.549C797.731 212.331 798.597 210.822 770.373 263.581C755.814 290.771 743.603 313.657 743.268 314.439C741.842 317.485 742.792 321.062 745.475 322.878C746.202 323.353 747.347 323.856 747.99 323.94C749.359 324.136 862.952 316.367 864.433 315.976C869.1 314.719 870.749 308.375 867.311 304.938C866.864 304.463 859.794 298.511 851.607 291.665C837.998 280.292 836.768 279.202 837.244 278.866C838.864 277.609 848.337 273.641 854.234 271.741C869.184 266.934 888.13 263.777 904.114 263.385L907.607 263.302L907.83 264.699C908.222 266.878 908.194 279.956 907.802 283.421C904.477 312.735 890.365 345.737 865.132 383.322C788.174 497.92 625.064 629.09 467.766 702.862C392.876 737.988 323.938 758.331 264.333 762.914C256.174 763.557 244.018 763.976 237.507 763.864C231.778 763.781 231.611 763.753 230.074 763.026C228.034 762.02 226.553 760.539 225.659 758.639C224.988 757.214 224.932 756.767 224.96 753.721C224.988 746.176 228.677 735.697 234.21 727.313C237.311 722.619 240.469 718.846 245.443 713.872C250.473 708.87 253.128 706.551 258.745 702.303C260.756 700.795 262.573 699.341 262.796 699.09C263.02 698.838 263.719 698.252 264.333 697.777C265.144 697.134 265.619 696.463 266.122 695.178C267.212 692.327 266.709 690.343 262.964 683.022C260.729 678.579 259.275 676.818 257.04 675.757C250.277 672.543 241.699 677.433 224.541 694.2C220.07 698.587 211.547 707.557 205.902 713.816C204.086 715.828 202.549 717.477 202.521 717.421C202.353 717.282 203.946 713.677 205.679 710.184C213.754 694.032 229.766 675.505 242.313 667.82C245.052 666.116 246.449 664.942 247.036 663.852C247.707 662.539 247.986 660.751 247.679 659.493C247.287 657.705 237.954 635.377 237.2 634.343C235.551 632.164 232.17 631.214 229.627 632.164C227.615 632.918 223.647 635.21 221.383 636.942C211.743 644.236 202.689 656.447 192.126 676.343C189.471 681.373 183.687 693.25 181.786 697.525C181.451 698.28 181.144 698.838 181.088 698.783C180.92 698.587 181.423 693.333 181.898 690.623C185.251 670.978 199.447 644.99 214.984 630.012C218.589 626.519 221.271 624.563 223.703 623.669C225.435 622.998 227.056 621.517 227.727 619.952C228.593 617.828 228.397 616.878 222.697 596.116C219.679 585.19 217.052 575.633 216.828 574.85C216.325 573.062 214.593 571.05 213 570.407C211.24 569.681 208.976 569.765 207.355 570.575C205.287 571.581 196.345 581.501 189.331 590.499C173.291 611.122 161.275 635.21 155.659 658.04C148.449 687.325 150.321 714.068 161.108 735.92C164.852 743.465 169.463 749.948 175.192 755.677C187.124 767.665 202.325 774.623 221.299 776.83C226.05 777.389 251.228 777.278 260.281 776.663C303.176 773.757 346.182 764.284 396.984 746.539L404.166 744.024L410.397 746.26C455.527 762.383 503.451 766.743 550.341 759.03C588.681 752.687 624.673 738.547 656.725 717.17C698.501 689.337 731.447 650.3 752.629 603.437C763.164 580.188 771.044 553.892 775.431 527.513C777.136 517.286 778.477 506.639 778.226 505.465C778.086 504.822 778.812 504.04 785.407 497.585C796.501 486.799 811.004 471.709 821.735 459.805C879.16 396.148 913.363 337.577 920.293 291.106C921.299 284.176 921.551 280.962 921.551 273.781C921.579 266.571 921.299 263.022 920.293 257.182C919.735 253.884 919.427 253.214 917.108 250.307C909.87 241.226 899.838 236.252 886.034 234.91C878.936 234.212 868.01 234.994 858.537 236.894C846.549 239.325 831.878 243.992 819.387 249.413C815.727 251.006 815.559 251.062 815.419 250.475C815.363 250.168 813.882 242.343 812.178 233.122C810.473 223.9 808.964 215.964 808.824 215.517C807.79 212.359 803.655 210.431 800.218 211.549Z" fill="black"/>
<path d="M488.026 220.575C487.635 220.659 483.862 221.273 479.643 221.972C439.99 228.399 414.309 235.749 390.641 247.373C375.774 254.695 362.166 263.525 347.747 275.206C342.297 279.621 341.599 280.291 341.599 281.102C341.599 281.912 342.381 282.723 343.136 282.723C343.415 282.723 345.315 282.22 347.299 281.633C362.808 276.994 376.501 274.283 390.78 273.054C397.543 272.495 412.605 272.635 418.166 273.333C442.337 276.379 461.088 284.874 476.234 299.601C494.174 317.066 504.932 341.349 507.307 369.908C507.699 374.519 507.699 386.144 507.307 390.866C507.14 392.934 506.693 396.763 506.329 399.361C505.631 404.224 505.687 404.922 506.665 405.23C508.062 405.649 513.092 406.264 516.78 406.487C546.122 408.08 572.445 393.968 601.758 360.966C606.062 356.132 611.735 349.285 620.202 338.751C627.97 329.11 633.475 322.515 636.884 318.826L638.784 316.759L642.194 319.022C664.409 333.749 680.421 359.709 687.826 392.962C692.8 415.234 693.331 440.942 689.335 463.8C683.216 498.675 667.539 526.591 645.491 541.82C634.872 549.17 621.627 553.753 608.8 554.535L605.866 554.703L609.331 550.818C622.633 535.98 631.323 521.449 633.615 510.216C634.23 507.226 634.397 501.301 633.894 500.016C633.755 499.625 633.391 499.206 633.112 499.038C632.693 498.814 626.964 499.597 610.533 502.056C598.405 503.872 588.289 505.465 588.066 505.549C587.842 505.661 583.427 511.333 578.285 518.152L568.924 530.559L568.784 516.866C568.645 503.705 568.617 503.146 568.114 502.755C567.806 502.531 567.415 502.363 567.275 502.363C567.108 502.363 560.569 501.553 552.745 500.547C542.796 499.289 538.381 498.814 538.046 499.01C537.766 499.178 532.653 505.046 526.673 512.06C517.675 522.679 515.83 524.719 515.747 524.16C515.719 523.769 516.25 517.761 516.948 510.802C517.647 503.816 518.206 497.697 518.206 497.166C518.206 496.495 518.038 496.104 517.591 495.824C516.333 495.014 478.218 482.188 477.547 482.355C477.1 482.467 476.429 483.361 475.283 485.373C470.309 494.204 464.637 500.91 460.501 502.922C455.751 505.214 451.643 503.397 447.647 497.194C444.964 493.086 443.315 489.369 440.521 481.266C432.613 458.212 421.743 442.256 406.988 431.888C398.8 426.16 388.07 422.136 377.228 420.739C373.204 420.208 363.004 420.291 358.505 420.878C334.11 424.036 309.156 436.695 287.387 456.898C283.363 460.643 277.16 467.238 276.964 467.992C276.657 469.138 277.383 469.725 280.82 471.066C284.9 472.659 288.673 474.699 294.373 478.471C312.76 490.571 328.381 508.064 338.553 527.932C344.477 539.529 347.719 549.365 349.311 560.767C349.898 564.986 349.982 574.571 349.451 578.092C347.244 593.294 340.621 605.03 329.108 614.224C322.485 619.477 309.435 626.212 304.517 626.854C301.471 627.246 297.727 625.848 294.457 623.11C285.962 615.984 277.327 598.156 269.894 572.503C267.519 564.371 264.529 552.216 262.908 544.28C262.21 540.814 261.455 537.713 261.232 537.349C260.729 536.595 259.443 536.511 258.8 537.238C257.599 538.551 254.693 546.18 253.631 550.846C251.507 560.068 251.535 571.022 253.743 582.004C258.884 607.713 275.735 637.892 302.058 668.631C322.01 691.936 346.685 714.292 364.234 724.938C367.391 726.866 372.812 729.549 373.567 729.549C373.846 729.549 379.687 727.369 386.505 724.743C399.974 719.517 400.058 719.461 399.164 717.896C398.856 717.393 397.794 716.834 395.112 715.745C380.553 709.876 367.559 702.192 358.281 693.948C352.665 688.918 348.194 682.938 346.07 677.545L345.511 676.12L346.265 676.288C350.625 677.154 364.764 677.182 370.94 676.315C391.479 673.493 408.637 664.775 426.381 648.148C436.972 638.256 449.519 622.551 459.747 606.399C461.256 604.052 462.541 602.124 462.653 602.124C462.96 602.124 464.553 606.818 465.391 610.228C466.9 616.18 467.208 619.142 467.18 627.274C467.18 633.309 467.068 635.517 466.565 639.29C464.385 655.329 458.796 673.298 450.972 689.282C447.898 695.569 447.647 696.435 448.848 697.022C449.715 697.441 452.481 696.91 456.589 695.541C481.822 687.158 543.747 651.753 605.112 610.647C677.319 562.276 733.04 517.09 761.739 483.641C766.852 477.689 772.497 470.172 775.124 465.868L776.186 464.136L775.571 459.022C767.914 393.968 733.04 331.262 679.862 286.942C647.028 259.557 608.269 240.052 565.711 229.489C548.05 225.102 530.25 222.391 510.102 220.966C505.631 220.659 489.116 220.351 488.026 220.575ZM484.086 253.828C490.066 254.527 492.776 255.645 492.776 257.377C492.776 260.367 486.629 266.85 479.363 271.517C475.563 273.948 475.675 273.864 475.675 274.759C475.675 275.765 476.457 276.379 477.547 276.212C478.022 276.128 479.447 275.681 480.76 275.178C489.563 271.908 506.19 268.471 521.14 266.906C527.651 266.208 539.527 266.208 542.936 266.878C545.982 267.493 548.162 268.443 548.804 269.421C551.347 273.305 538.633 283.421 516.389 295.242C513.79 296.611 511.415 297.952 511.164 298.204C510.158 299.098 510.884 300.886 512.226 300.886C512.589 300.886 515.439 300.383 518.541 299.768C534.944 296.555 552.381 293.928 565.571 292.727C567.723 292.531 572.892 292.363 577.028 292.363C585.216 292.363 587.926 292.699 590.581 294.012C592.369 294.906 592.621 295.745 591.587 297.673C589.072 302.479 578.09 310.415 560.261 320.252C557.188 321.956 554.449 323.521 554.17 323.772C553.443 324.387 553.639 325.784 554.561 326.287C555.232 326.651 555.567 326.567 560.485 324.415C574.653 318.212 585.216 314.663 594.353 313.014C596.086 312.707 598.629 312.511 601.06 312.511C605.615 312.483 608.102 313.07 609.974 314.607C614.641 318.491 612.545 327.796 604.246 340.26C591.084 360.044 566.8 380.611 545.982 389.637C536.816 393.633 527.036 395.784 520.804 395.198L518.709 395.002L518.876 393.717C519.966 385.361 519.854 373.737 518.597 363.761C516.501 346.994 510.717 329.277 502.613 314.998C500.545 311.337 495.236 303.485 492.693 300.299C475.479 278.922 452.341 266.068 424.23 262.323C421.938 262.016 419.563 261.764 418.976 261.764C418.389 261.764 417.83 261.625 417.747 261.485C417.663 261.317 417.663 261.206 417.802 261.206C417.914 261.206 420.429 260.647 423.335 259.948C436.469 256.874 451.028 254.806 466.788 253.8C478.301 253.074 477.854 253.074 484.086 253.828Z" fill="black"/>
</mask>
<g mask="url(#mask0_1_2)">
<path d="M264.246 163.669C293.833 144.508 268.994 95.6933 238.045 117.179C225.824 125.779 220.179 141.951 229.544 154.504C237.049 164.466 252.789 171.108 264.246 163.669ZM811.439 390.012C790.884 414.353 833.887 439.391 845.078 414.452C854.111 394.196 827.279 371.116 811.439 390.012ZM246.147 90.0812C259.43 86.7605 256.874 65.7733 242.827 68.3967C228.78 71.0201 233.064 93.3356 246.147 90.0812ZM303.032 117.677C322.956 112.729 318.706 80.7831 297.32 85.399C277.296 89.6828 283.639 122.459 303.032 117.677ZM792.644 569.1C782.084 563.056 770.228 569.897 766.078 580.822C757.145 604.067 793.739 620.937 803.735 598.654C809.347 585.936 804.034 575.542 792.644 569.1ZM792.179 624.589C776.903 618.38 767.041 643.219 782.017 648.167C796.994 653.115 807.819 630.932 792.179 624.589ZM114.247 360.955C87.3824 350.428 70.1477 393.963 96.7137 402.63C123.28 411.298 142.075 371.947 114.247 360.955ZM230.308 673.57C218.984 670.25 211.213 676.725 207.726 684.894C206.79 686.806 206.269 688.894 206.197 691.021C206.126 693.149 206.506 695.267 207.312 697.237C208.118 699.207 209.333 700.984 210.875 702.451C212.417 703.918 214.253 705.042 216.261 705.749C218.3 706.752 220.524 707.326 222.794 707.435C225.064 707.545 227.333 707.187 229.459 706.383C231.585 705.58 233.524 704.349 235.155 702.766C236.786 701.183 238.075 699.282 238.941 697.181C241.764 690.54 241.664 676.758 230.308 673.57ZM658.651 552.197C672.665 539.445 681.133 529.682 685.583 504.212C689.667 480.967 722.875 490.929 730.545 497.239C743.782 507.945 760.456 513.48 777.468 512.813C791.149 511.783 802.871 502.485 804.034 490.464C805.661 473.861 788.659 461.74 774.147 458.087C759.004 454.301 741.471 459.316 725.066 458.751C710.82 458.253 695.445 451.811 697.338 427.802C698.035 419.201 708.197 408.242 723.24 410.899C755.684 416.578 767.505 404.722 764.749 390.975C761.993 377.227 748.378 370.618 722.675 381.643C707.599 388.285 693.951 381.378 690.265 375.334C680.303 359.295 682.195 350.993 688.438 342.425C692.326 337.092 697.327 332.668 703.096 329.463C708.865 326.257 715.263 324.346 721.845 323.862C750.304 322.401 761.993 318.947 774.977 300.617C790.02 279.298 776.737 253.296 752.496 247.983C731.11 243.301 711.551 253.894 698.367 270.033C687.01 283.914 661.839 313.667 626.54 286.437C586.192 255.222 654.832 207.802 667.352 188.741C695.777 145.571 653.537 96.0254 606.349 119.868C584.067 131.259 579.119 154.902 575.998 177.749C573.507 195.781 578.223 219.159 560.324 228.523C533.758 242.471 470.664 230.317 467.343 201.692C464.753 179.941 471.593 165.628 475.977 145.239C480.825 122.625 474.383 99.811 449.411 93.8337C439.402 91.4201 428.85 92.8915 419.884 97.951C410.917 103.011 404.202 111.282 401.094 121.097C391.132 153.773 450.108 216.369 405.643 234.999C393.124 240.246 379.077 240.013 371.971 233.803C360.215 223.376 356.496 215.074 356.562 204.448C356.562 188.807 339.66 181.634 330.362 184.756C318.075 188.874 308.246 203.784 324.218 220.454C334.745 231.412 341.951 237.988 341.984 250.673C341.984 273.619 330.495 278.401 323.654 280.56C286.993 290.655 272.249 226.232 252.789 207.105C226.754 181.668 183.485 191.431 173.556 227.228C161.103 272.158 202.28 305.1 240.469 310.745C264.146 314.265 277.263 327.548 273.444 347.606C270.123 365.471 250.73 375.898 230.274 360.889C209.818 345.879 185.975 345.846 179.732 364.641C173.489 383.436 195.207 399.509 220.644 395.557C241.797 392.236 259.663 401.302 257.172 422.123C255.213 438.727 244.454 446.73 222.769 443.442C201.085 440.155 181.492 424.647 155.657 433.148C150.631 434.624 146.039 437.3 142.277 440.945C138.515 444.59 135.696 449.095 134.062 454.072C132.428 459.048 132.029 464.348 132.898 469.513C133.768 474.679 135.88 479.555 139.053 483.723C154.229 505.042 184.182 502.386 206.996 494.516C220.578 489.833 244.886 476.052 261.523 491.195C276.532 504.943 264.046 539.811 249.037 553.857C234.624 567.373 199.026 567.14 192.418 588.46C191.166 592.281 190.739 596.325 191.164 600.324C191.589 604.323 192.857 608.187 194.884 611.66C196.91 615.134 199.651 618.138 202.923 620.475C206.196 622.813 209.927 624.43 213.87 625.22C236.65 628.01 242.329 609.812 252.822 592.013C260.46 579.162 282.709 561.628 298.549 585.604C305.423 596.097 311.832 624.922 333.384 627.943C366.06 632.493 372.004 660.122 358.821 675.928C347.563 689.477 337.136 704.553 337.202 722.054C337.124 729.87 340.075 737.414 345.436 743.103C350.797 748.792 358.153 752.185 365.96 752.571C386.084 753.534 397.574 736.366 396.943 719.032C396.378 704.022 392.925 682.835 401.027 668.922C411.521 650.857 460.502 654.609 457.48 682.204C456.119 694.425 461.199 707.077 477.77 706.878C488.629 706.878 498.325 695.288 494.374 676.991C492.016 666.198 499.587 658.826 509.018 653.447C518.449 648.067 535.385 650.358 540.333 652.749C579.883 671.91 544.65 708.771 575.632 735.337C580.332 739.09 585.984 741.46 591.955 742.182C597.926 742.903 603.98 741.947 609.438 739.421C618.902 734.407 623.518 727.035 622.721 714.349C621.525 692.233 601.767 687.783 592.502 665.136C584.3 645.012 583.702 624.39 606.681 614.395C630.458 604.067 649.154 626.682 656.792 640.695C663.964 653.978 671.17 661.184 687.442 664.206C710.887 668.556 723.771 640.263 706.204 624.058C688.638 607.853 681 609.58 665.26 600.082C653.006 593.009 641.981 567.373 658.651 552.197Z" fill="#EAFF3E"/>
<path d="M1018.82 394.708C1002.33 395.719 997.751 415.336 1009.03 422.717C1020.31 430.099 1039.45 426.56 1041.13 414.122C1041.48 411.56 1041.15 408.966 1040.16 406.524C1039.17 404.083 1037.56 401.855 1035.42 399.999C1033.29 398.144 1030.7 396.708 1027.83 395.793C1024.96 394.878 1021.88 394.508 1018.82 394.708Z" fill="#603AFF"/>
<path d="M329.1 401.449C327.315 400.689 325.352 400.27 323.352 400.222C321.351 400.174 319.363 400.498 317.529 401.171C315.696 401.845 314.062 402.85 312.746 404.116C311.43 405.382 310.463 406.877 309.916 408.494C306.906 417.19 320.15 423.998 328.056 419.886C335.962 415.774 337.728 405.056 329.1 401.449Z" fill="#603AFF"/>
<path d="M325.528 351.161C322.858 350.021 319.92 349.391 316.926 349.318C313.931 349.246 310.955 349.731 308.211 350.74C305.467 351.749 303.023 353.256 301.056 355.153C299.088 357.05 297.646 359.29 296.833 361.711C292.338 374.721 312.123 384.866 323.963 378.564C335.802 372.261 338.45 356.689 325.528 351.161Z" fill="#603AFF"/>
<path d="M937.351 168.884C941.19 166.67 944.306 163.682 946.415 160.195C948.523 156.707 949.557 152.832 949.421 148.922C949.285 145.013 947.985 141.194 945.638 137.816C943.291 134.437 939.972 131.607 935.987 129.584C920.535 121.529 899.105 134.64 897.379 149.1C895.292 166.458 922.863 178.052 937.351 168.884Z" fill="#603AFF"/>
<path d="M971.705 127.461C973.078 127.083 974.336 126.454 975.386 125.62C976.436 124.786 977.253 123.767 977.779 122.636C978.304 121.505 978.525 120.29 978.426 119.079C978.326 117.868 977.909 116.69 977.203 115.63C973.43 109.901 962.554 112.26 961.15 117.619C959.745 122.978 965.043 129.315 971.705 127.461Z" fill="#603AFF"/>
<path d="M982.741 167.806C984.846 167.231 986.772 166.271 988.382 164.995C989.992 163.72 991.244 162.161 992.051 160.43C992.857 158.699 993.196 156.839 993.043 154.985C992.891 153.131 992.251 151.328 991.169 149.706C985.43 140.943 968.815 144.313 966.407 152.706C963.999 161.099 972.547 170.57 982.741 167.806Z" fill="#603AFF"/>
<path d="M876.309 632.43C887.988 626.363 890.797 610.387 877.874 604.859C875.204 603.719 872.267 603.089 869.272 603.016C866.278 602.943 863.302 603.429 860.558 604.438C857.814 605.447 855.37 606.954 853.402 608.851C851.435 610.748 849.993 612.988 849.179 615.409C844.725 628.419 864.47 638.564 876.309 632.43Z" fill="#603AFF"/>
<path d="M573.428 75.9596C575.354 61.3653 558.458 46.434 541.683 53.0065C538.229 54.3648 535.176 56.3482 532.742 58.8145C530.309 61.2807 528.555 64.1687 527.608 67.2713C526.66 70.3738 526.542 73.614 527.262 76.7595C527.981 79.9049 529.521 82.8777 531.77 85.4644C543.81 99.452 571.461 90.7561 573.428 75.9596Z" fill="#603AFF"/>
<path d="M583.099 48.1867C593.815 48.1867 603.607 38.6481 597.748 30.4915C596.518 28.8474 594.879 27.4459 592.944 26.3829C591.009 25.3198 588.824 24.6203 586.537 24.3323C584.251 24.0442 581.917 24.1744 579.696 24.7139C577.475 25.2534 575.419 26.1895 573.668 27.4581C564.197 34.5024 572.224 48.1193 583.099 48.1867Z" fill="#603AFF"/>
<path d="M464.748 525.383C448.173 537.82 462.42 561.852 481.604 561.953C500.787 562.054 517.723 545.1 507.489 530.708C505.347 527.748 502.455 525.221 499.019 523.305C495.582 521.39 491.686 520.133 487.606 519.625C483.527 519.117 479.364 519.369 475.413 520.364C471.463 521.359 467.821 523.073 464.748 525.383Z" fill="#603AFF"/>
<path d="M1015.41 200.028C991.57 178.288 956.815 187.827 933.819 206.769C922.341 216.173 904.282 222.037 887.065 223.385C852.27 226.116 812.578 191.433 819.441 159.818C824.699 135.55 867.6 129.214 869.125 101.036C870.57 75.4203 847.374 60.5901 818.438 69.1175C781.516 80.0042 797.248 118.731 781.997 141.617C772.927 155.099 744.032 154.054 725.41 150.481C702.695 146.134 692.1 139.864 686.2 129.719C679.699 118.529 682.187 109.496 689.01 91.7336C698.441 66.5896 679.097 56.8151 660.917 59.2082C642.737 61.6013 625.961 76.0607 640.369 99.6543C652.81 119.877 647.914 132.719 638.122 140.538C619.42 155.402 577.401 172.086 550.11 159.784C535.141 153.043 537.83 139.999 526.031 117.113C512.305 90.3517 460.053 78.8245 442.434 101.104C421.164 128.068 442.434 157.189 489.35 170.94C503.557 175.12 514.794 188.467 515.596 204.342C516.158 216.004 508.774 234.272 498.981 241.114C492.168 246.304 483.4 249.319 474.209 249.634C465.019 249.948 455.988 247.541 448.695 242.833C430.716 232.25 415.064 224.464 393.874 223.453C369.192 222.273 352.136 229.992 345.353 243.406C342.239 250.251 341.626 257.719 343.592 264.858C345.558 271.997 350.013 278.481 356.39 283.482C384.122 303.705 417.311 277.078 452.949 290.796C482.126 302.019 483.049 346.173 469.002 358.812C442.595 382.406 398.288 359.689 368.149 381.159C346.036 396.933 365.941 434.716 402.342 428.346C431.197 423.425 441.913 402.46 463.584 401.955C487.664 401.382 502.955 420.796 495.41 437.278C490.112 448.872 478.514 448.704 462.581 456.355C455.72 459.649 450.563 464.969 448.115 471.28C445.667 477.591 446.103 484.442 449.337 490.498C461.096 511.496 487.182 501.924 494.727 488.307C510.78 459.793 530.245 464.882 538.552 469.769C555.167 479.544 553.642 501.048 554.846 526.192C556.013 551.798 555.571 577.438 553.522 603.005C550.953 635.396 548.505 635.497 544.893 652.316C540.599 672.539 553.522 682.92 570.658 682.178C586.19 681.504 598.189 666.742 595.34 653.597C591.327 634.452 585.026 617.229 585.026 598.051C585.026 566.772 591.246 545.774 597.307 533.101C605.654 515.608 611.353 509.71 633.145 509.777C657.225 509.777 665.693 543.482 669.746 557.301C674.482 573.446 676.89 598.624 669.746 645.777C667.619 659.798 660.114 673.381 656.663 681.572C640.249 720.569 660.676 742.409 686.762 744.465C724.206 747.432 732.514 724.478 727.898 698.424C725.33 684.032 717.344 669.067 715.497 651.237C710.12 600.14 713.651 571.794 716.822 555.852C721.397 532.798 726.975 522.383 748.085 516.687C763.416 512.541 775.656 520.664 779.629 545.37C781.732 559.176 781.57 573.159 779.148 586.928C774.814 612.611 784.285 624.846 801.181 624.779C812.779 624.779 825.501 618.24 821.769 591.445C816.271 551.774 818.839 537.752 822.25 518.945C828.632 483.993 851.668 466.601 867.48 465.017C886.342 462.961 893.004 471.151 898.222 480.353C910.262 501.519 942.368 505.025 951.197 484.633C961.029 462.186 941.605 445.502 918.288 439.738C901.633 435.626 891.6 433.806 887.426 423.088C884.376 415.133 890.436 389.383 901.794 379.271C907.261 374.551 914.688 371.786 922.525 371.554C930.361 371.322 938.002 373.639 943.853 378.024C966.728 397.101 992.855 394.607 997.59 373.643C1002.13 353.622 976.521 340.342 945.418 343.611C933.378 344.858 920.977 339.499 911.787 331.815C903.079 324.443 897.944 314.617 897.379 304.244C895.412 280.65 907.532 260.158 926.876 255.169C948.588 249.608 968.414 261.304 995.102 253.08C1028.53 243.036 1033.39 216.409 1015.41 200.028Z" fill="#603AFF"/>
</g>
</g>
<defs>
<clipPath id="clip0_1_2">
<rect width="1024" height="1024" fill="white"/>
</clipPath>
</defs>
</svg>
